<?xml version="1.0" encoding="utf-8"?><svg xml:space="preserve" viewBox="0 0 100 100" y="0" x="0" xmlns="http://www.w3.org/2000/svg" id="圖層_1" version="1.1" width="128px" height="128px" xmlns:xlink="http://www.w3.org/1999/xlink" style="width:100%;height:100%;background-size:initial;background-repeat-y:initial;background-repeat-x:initial;background-position-y:initial;background-position-x:initial;background-origin:initial;background-color:initial;background-clip:initial;background-attachment:initial;animation-play-state:paused" ><g class="ldl-scale" style="transform-origin:50% 50%;transform:rotate(0deg) scale(0.8, 0.8);animation-play-state:paused" ><path d="M10 22.4h80" stroke-miterlimit="10" stroke-width="4.881" stroke="#333" fill="none" style="stroke:rgb(245, 199, 157);animation-play-state:paused" ></path>
<path stroke-miterlimit="10" stroke-width="4.643" stroke="#333" fill="#e15b64" d="M69.8 31.5H59.4c-2.2 0-3.9-1.8-3.9-3.9V17.1c0-2.2 1.8-3.9 3.9-3.9h10.4c2.2 0 3.9 1.8 3.9 3.9v10.4c0 2.2-1.7 4-3.9 4z" style="stroke:rgb(245, 199, 157);fill:rgb(249, 138, 37);animation-play-state:paused" ></path>
<path d="M90 50H10" stroke-miterlimit="10" stroke-width="4.881" stroke="#333" fill="none" style="stroke:rgb(245, 199, 157);animation-play-state:paused" ></path>
<path stroke-miterlimit="10" stroke-width="4.643" stroke="#333" fill="#f47e60" d="M30.2 59.2h10.4c2.2 0 3.9-1.8 3.9-3.9V44.8c0-2.2-1.8-3.9-3.9-3.9H30.2c-2.2 0-3.9 1.8-3.9 3.9v10.4c0 2.2 1.7 4 3.9 4z" style="stroke:rgb(245, 199, 157);fill:rgb(249, 138, 37);animation-play-state:paused" ></path>
<path d="M10 77.6h80" stroke-miterlimit="10" stroke-width="4.881" stroke="#333" fill="none" style="stroke:rgb(245, 199, 157);animation-play-state:paused" ></path>
<path stroke-miterlimit="10" stroke-width="4.643" stroke="#333" fill="#f8b26a" d="M69.8 86.8H59.4c-2.2 0-3.9-1.8-3.9-3.9V72.4c0-2.2 1.8-3.9 3.9-3.9h10.4c2.2 0 3.9 1.8 3.9 3.9v10.4c0 2.2-1.7 4-3.9 4z" style="stroke:rgb(245, 199, 157);fill:rgb(249, 138, 37);animation-play-state:paused" ></path>
<metadata xmlns:d="https://loading.io/stock/" style="animation-play-state:paused" ><d:name style="animation-play-state:paused" >settings</d:name>
<d:tags style="animation-play-state:paused" >slider,tweak,tune,control,panel,config,settings,web application</d:tags>
<d:license style="animation-play-state:paused" >by</d:license>
<d:slug style="animation-play-state:paused" >kvo3wt</d:slug></metadata></g><!-- generated by https://loading.io/ --></svg>